<svg width="131" height="19" viewBox="0 0 131 19" fill="none" xmlns="http://www.w3.org/2000/svg">
<path d="M14.928 3.28C14.272 2.624 13.424 2.16 12.384 1.888C11.36 1.6 10.304 1.456 9.216 1.456H9.24H4.872V9.568H9.912L11.904 11.584L11.424 12.04C11.104 11.72 10.728 11.448 10.296 11.224C9.88 10.984 9.44 10.792 8.976 10.648C8.512 10.504 8.048 10.4 7.584 10.336C7.12 10.256 6.688 10.216 6.288 10.216H4.872V16.768C5.08 16.96 5.304 17.152 5.544 17.344C5.8 17.52 6.064 17.688 6.336 17.848C6.624 17.992 6.904 18.112 7.176 18.208C7.464 18.288 7.744 18.328 8.016 18.328C8.304 18.328 8.608 18.336 8.928 18.352C9.248 18.352 9.616 18.344 10.032 18.328C10.432 18.328 10.848 18.288 11.28 18.208C11.728 18.128 12.168 18.016 12.6 17.872C13.032 17.712 13.448 17.52 13.848 17.296C14.248 17.072 14.608 16.808 14.928 16.504L15.384 16.984L13.392 19H9.768H8.016C7.392 19 6.776 18.84 6.168 18.52C5.56 18.2 5.04 17.832 4.608 17.416C4.192 17.048 3.824 16.696 3.504 16.36C3.184 16.008 2.84 15.656 2.472 15.304V15.28C2.04 14.816 1.64 14.256 1.272 13.6C0.904 12.928 0.72 12.2 0.72 11.416H1.392C1.392 11.96 1.496 12.472 1.704 12.952C1.912 13.432 2.168 13.864 2.472 14.248V1.456H0.816V0.783998H9.768H13.392L15.384 2.8L14.928 3.28ZM29.3998 19H26.9758H16.8238V18.328H18.4798V3.784C18.1758 4.184 17.9198 4.624 17.7118 5.104C17.5038 5.568 17.3998 6.08 17.3998 6.64H16.7278C16.7278 5.84 16.9118 5.104 17.2798 4.432C17.6478 3.744 18.0558 3.176 18.5038 2.728C18.5518 2.68 18.6958 2.528 18.9358 2.272C19.1918 2.016 19.4638 1.744 19.7518 1.456L20.8798 0.327999V18.328H25.7758C26.1758 18.328 26.6078 18.296 27.0718 18.232C27.5358 18.168 27.9998 18.064 28.4638 17.92C28.9278 17.776 29.3758 17.592 29.8078 17.368C30.2398 17.128 30.6158 16.84 30.9358 16.504L31.3918 16.984L29.3998 19ZM44.5764 3.28C43.9204 2.624 43.0724 2.16 42.0324 1.888C41.0084 1.6 39.9524 1.456 38.8644 1.456H38.8884H34.5204V9.568H39.5604L41.5524 11.584L41.0724 12.04C40.7524 11.72 40.3764 11.448 39.9444 11.224C39.5284 10.984 39.0884 10.792 38.6244 10.648C38.1604 10.504 37.6964 10.4 37.2324 10.336C36.7684 10.256 36.3364 10.216 35.9364 10.216H34.5204V16.768C34.7284 16.96 34.9524 17.152 35.1924 17.344C35.4484 17.52 35.7124 17.688 35.9844 17.848C36.2724 17.992 36.5524 18.112 36.8244 18.208C37.1124 18.288 37.3924 18.328 37.6644 18.328C37.9524 18.328 38.2564 18.336 38.5764 18.352C38.8964 18.352 39.2644 18.344 39.6804 18.328C40.0804 18.328 40.4964 18.288 40.9284 18.208C41.3764 18.128 41.8164 18.016 42.2484 17.872C42.6804 17.712 43.0964 17.52 43.4964 17.296C43.8964 17.072 44.2564 16.808 44.5764 16.504L45.0324 16.984L43.0404 19H39.4164H37.6644C37.0404 19 36.4244 18.84 35.8164 18.52C35.2084 18.2 34.6884 17.832 34.2564 17.416C33.8404 17.048 33.4724 16.696 33.1524 16.36C32.8324 16.008 32.4884 15.656 32.1204 15.304V15.28C31.6884 14.816 31.2884 14.256 30.9204 13.6C30.5524 12.928 30.3684 12.2 30.3684 11.416H31.0404C31.0404 11.96 31.1444 12.472 31.3524 12.952C31.5604 13.432 31.8164 13.864 32.1204 14.248V1.456H30.4644V0.783998H39.4164H43.0404L45.0324 2.8L44.5764 3.28ZM59.1004 10.24L59.7964 9.568C59.7804 10.736 59.6124 11.888 59.2924 13.024C58.9884 14.144 58.5324 15.152 57.9244 16.048C57.3164 16.928 56.5564 17.64 55.6444 18.184C54.7484 18.728 53.7164 19 52.5484 19H52.4524C51.2684 19 50.2204 18.728 49.3084 18.184C48.4124 17.624 47.6604 16.912 47.0524 16.048C46.4444 15.168 45.9804 14.192 45.6604 13.12C45.3564 12.048 45.2044 10.984 45.2044 9.928C45.2044 8.872 45.3564 7.816 45.6604 6.76C45.9804 5.704 46.4444 4.744 47.0524 3.88C47.6604 3.016 48.4124 2.304 49.3084 1.744C50.2204 1.184 51.2684 0.88 52.4524 0.831999C52.9964 0.816 53.5244 0.88 54.0364 1.024C54.5484 1.168 55.0364 1.376 55.5004 1.648C55.9804 1.92 56.4204 2.248 56.8204 2.632C57.2364 3 57.6044 3.4 57.9244 3.832C57.8284 4.2 57.6924 4.544 57.5164 4.864C57.3564 5.168 57.1244 5.536 56.8204 5.968C56.6124 5.392 56.3644 4.84 56.0764 4.312C55.8044 3.768 55.4924 3.288 55.1404 2.872C54.7884 2.456 54.3964 2.128 53.9644 1.888C53.5324 1.632 53.0604 1.504 52.5484 1.504C51.7804 1.504 51.1084 1.744 50.5324 2.224C49.9724 2.688 49.4924 3.248 49.0924 3.904C48.5804 4.768 48.2044 5.736 47.9644 6.808C47.7244 7.88 47.6044 8.92 47.6044 9.928C47.6044 10.936 47.7244 11.976 47.9644 13.048C48.2044 14.12 48.5804 15.088 49.0924 15.952C49.4764 16.592 49.9484 17.152 50.5084 17.632C51.0844 18.112 51.7484 18.352 52.5004 18.352C53.2524 18.352 53.9084 18.112 54.4684 17.632C55.0444 17.152 55.5244 16.592 55.9084 15.952C56.4044 15.136 56.7644 14.232 56.9884 13.24C57.2284 12.232 57.3644 11.24 57.3964 10.264H54.2524C53.8364 10.264 53.4924 10.4 53.2204 10.672C52.9644 10.944 52.8364 11.36 52.8364 11.92H52.1644C52.1644 11.2 52.3564 10.632 52.7404 10.216C53.1404 9.8 53.6444 9.592 54.2524 9.592H57.7324C58.1484 9.592 58.4844 9.456 58.7404 9.184C59.0124 8.912 59.1484 8.496 59.1484 7.936H59.7964V10.024V10.168C59.7964 10.2 59.8044 10.232 59.8204 10.264L59.1004 10.24ZM71.1324 19V18.352H72.6444L70.1004 12.016H63.8844L61.3404 18.352H62.8524V19H58.8684V18.352H60.6204L67.0764 2.248C67.1564 2.072 67.2284 1.896 67.2924 1.72C67.3564 1.528 67.4204 1.352 67.4844 1.192C67.5484 1.016 67.6204 0.839999 67.7004 0.663999H68.0364L75.1164 18.352H76.8684V19H71.1324ZM66.9804 4.24L64.1484 11.344H69.8364L66.9804 4.24ZM92.3621 19V18.328H95.7461C95.6661 17.8 95.4661 17.272 95.1461 16.744C94.8421 16.216 94.4981 15.768 94.1141 15.4L82.3781 3.688V18.328H84.0341V19H81.6101V18.976C81.3381 18.992 81.0101 19 80.6261 19C80.2581 19 79.8981 19 79.5461 19H78.2981V18.328H79.9541V0.303999L82.3061 2.68L94.0181 14.344V1.456H92.3621V0.783998H94.7861H96.2261H98.0981V1.456H96.4421V18.328H98.0981V19H92.3621ZM113.525 13.552C113.269 14.272 112.925 14.96 112.493 15.616C112.077 16.272 111.581 16.856 111.005 17.368C110.445 17.864 109.813 18.264 109.109 18.568C108.405 18.856 107.645 19 106.829 19C106.013 19 105.253 18.856 104.549 18.568C103.845 18.264 103.205 17.864 102.629 17.368C102.069 16.856 101.573 16.272 101.141 15.616C100.725 14.944 100.389 14.248 100.133 13.528C99.9245 12.952 99.7725 12.36 99.6765 11.752C99.5805 11.128 99.5325 10.512 99.5325 9.904C99.5325 8.624 99.7325 7.408 100.133 6.256C100.389 5.536 100.725 4.848 101.141 4.192C101.573 3.536 102.069 2.96 102.629 2.464C103.205 1.952 103.845 1.544 104.549 1.24C105.253 0.935999 106.013 0.783998 106.829 0.783998C108.157 0.783998 109.349 1.184 110.405 1.984C111.461 2.768 112.325 3.784 112.997 5.032C112.629 5.128 112.317 5.264 112.061 5.44C111.805 5.6 111.525 5.848 111.221 6.184C111.029 5.592 110.797 5.016 110.525 4.456C110.253 3.896 109.933 3.392 109.565 2.944C109.197 2.496 108.781 2.136 108.317 1.864C107.869 1.592 107.381 1.456 106.853 1.456C106.101 1.456 105.437 1.696 104.861 2.176C104.301 2.656 103.821 3.224 103.421 3.88C102.909 4.744 102.533 5.712 102.293 6.784C102.053 7.856 101.933 8.896 101.933 9.904C101.933 10.912 102.053 11.952 102.293 13.024C102.533 14.096 102.909 15.064 103.421 15.928C103.821 16.568 104.301 17.128 104.861 17.608C105.421 18.088 106.077 18.328 106.829 18.328H106.877C107.549 18.328 108.141 18.152 108.653 17.8C109.165 17.448 109.597 17.008 109.949 16.48C110.317 15.936 110.613 15.352 110.837 14.728C111.077 14.088 111.261 13.48 111.389 12.904C111.709 12.824 111.997 12.68 112.253 12.472C112.509 12.264 112.725 12.016 112.901 11.728C113.093 11.424 113.237 11.096 113.333 10.744C113.429 10.392 113.477 10.04 113.477 9.688H114.125V9.928C114.125 10.536 114.077 11.152 113.981 11.776C113.885 12.384 113.733 12.976 113.525 13.552ZM129.772 3.28C129.116 2.624 128.268 2.16 127.228 1.888C126.204 1.6 125.148 1.456 124.06 1.456H124.084H119.716V9.568H124.756L126.748 11.584L126.268 12.04C125.948 11.72 125.572 11.448 125.14 11.224C124.724 10.984 124.284 10.792 123.82 10.648C123.356 10.504 122.892 10.4 122.428 10.336C121.964 10.256 121.532 10.216 121.132 10.216H119.716V16.768C119.924 16.96 120.148 17.152 120.388 17.344C120.644 17.52 120.908 17.688 121.18 17.848C121.468 17.992 121.748 18.112 122.02 18.208C122.308 18.288 122.588 18.328 122.86 18.328C123.148 18.328 123.452 18.336 123.772 18.352C124.092 18.352 124.46 18.344 124.876 18.328C125.276 18.328 125.692 18.288 126.124 18.208C126.572 18.128 127.012 18.016 127.444 17.872C127.876 17.712 128.292 17.52 128.692 17.296C129.092 17.072 129.452 16.808 129.772 16.504L130.228 16.984L128.236 19H124.612H122.86C122.236 19 121.62 18.84 121.012 18.52C120.404 18.2 119.884 17.832 119.452 17.416C119.036 17.048 118.668 16.696 118.348 16.36C118.028 16.008 117.684 15.656 117.316 15.304V15.28C116.884 14.816 116.484 14.256 116.116 13.6C115.748 12.928 115.564 12.2 115.564 11.416H116.236C116.236 11.96 116.34 12.472 116.548 12.952C116.756 13.432 117.012 13.864 117.316 14.248V1.456H115.66V0.783998H124.612H128.236L130.228 2.8L129.772 3.28Z" fill="black"/>
</svg>
