<svg width="131" height="35" viewBox="0 0 131 35" fill="none" xmlns="http://www.w3.org/2000/svg">
<path d="M14.928 4.28C14.272 3.624 13.424 3.16 12.384 2.888C11.36 2.6 10.304 2.456 9.216 2.456H9.24H4.872V10.568H9.912L11.904 12.584L11.424 13.04C11.104 12.72 10.728 12.448 10.296 12.224C9.88 11.984 9.44 11.792 8.976 11.648C8.512 11.504 8.048 11.4 7.584 11.336C7.12 11.256 6.688 11.216 6.288 11.216H4.872V17.768C5.08 17.96 5.304 18.152 5.544 18.344C5.8 18.52 6.064 18.688 6.336 18.848C6.624 18.992 6.904 19.112 7.176 19.208C7.464 19.288 7.744 19.328 8.016 19.328C8.304 19.328 8.608 19.336 8.928 19.352C9.248 19.352 9.616 19.344 10.032 19.328C10.432 19.328 10.848 19.288 11.28 19.208C11.728 19.128 12.168 19.016 12.6 18.872C13.032 18.712 13.448 18.52 13.848 18.296C14.248 18.072 14.608 17.808 14.928 17.504L15.384 17.984L13.392 20H9.768H8.016C7.392 20 6.776 19.84 6.168 19.52C5.56 19.2 5.04 18.832 4.608 18.416C4.192 18.048 3.824 17.696 3.504 17.36C3.184 17.008 2.84 16.656 2.472 16.304V16.28C2.04 15.816 1.64 15.256 1.272 14.6C0.904 13.928 0.72 13.2 0.72 12.416H1.392C1.392 12.96 1.496 13.472 1.704 13.952C1.912 14.432 2.168 14.864 2.472 15.248V2.456H0.816V1.784H9.768H13.392L15.384 3.8L14.928 4.28ZM29.3998 20H26.9758H16.8238V19.328H18.4798V4.784C18.1758 5.184 17.9198 5.624 17.7118 6.104C17.5038 6.568 17.3998 7.08 17.3998 7.64H16.7278C16.7278 6.84 16.9118 6.104 17.2798 5.432C17.6478 4.744 18.0558 4.176 18.5038 3.728C18.5518 3.68 18.6958 3.528 18.9358 3.272C19.1918 3.016 19.4638 2.744 19.7518 2.456L20.8798 1.328V19.328H25.7758C26.1758 19.328 26.6078 19.296 27.0718 19.232C27.5358 19.168 27.9998 19.064 28.4638 18.92C28.9278 18.776 29.3758 18.592 29.8078 18.368C30.2398 18.128 30.6158 17.84 30.9358 17.504L31.3918 17.984L29.3998 20ZM44.5764 4.28C43.9204 3.624 43.0724 3.16 42.0324 2.888C41.0084 2.6 39.9524 2.456 38.8644 2.456H38.8884H34.5204V10.568H39.5604L41.5524 12.584L41.0724 13.04C40.7524 12.72 40.3764 12.448 39.9444 12.224C39.5284 11.984 39.0884 11.792 38.6244 11.648C38.1604 11.504 37.6964 11.4 37.2324 11.336C36.7684 11.256 36.3364 11.216 35.9364 11.216H34.5204V17.768C34.7284 17.96 34.9524 18.152 35.1924 18.344C35.4484 18.52 35.7124 18.688 35.9844 18.848C36.2724 18.992 36.5524 19.112 36.8244 19.208C37.1124 19.288 37.3924 19.328 37.6644 19.328C37.9524 19.328 38.2564 19.336 38.5764 19.352C38.8964 19.352 39.2644 19.344 39.6804 19.328C40.0804 19.328 40.4964 19.288 40.9284 19.208C41.3764 19.128 41.8164 19.016 42.2484 18.872C42.6804 18.712 43.0964 18.52 43.4964 18.296C43.8964 18.072 44.2564 17.808 44.5764 17.504L45.0324 17.984L43.0404 20H39.4164H37.6644C37.0404 20 36.4244 19.84 35.8164 19.52C35.2084 19.2 34.6884 18.832 34.2564 18.416C33.8404 18.048 33.4724 17.696 33.1524 17.36C32.8324 17.008 32.4884 16.656 32.1204 16.304V16.28C31.6884 15.816 31.2884 15.256 30.9204 14.6C30.5524 13.928 30.3684 13.2 30.3684 12.416H31.0404C31.0404 12.96 31.1444 13.472 31.3524 13.952C31.5604 14.432 31.8164 14.864 32.1204 15.248V2.456H30.4644V1.784H39.4164H43.0404L45.0324 3.8L44.5764 4.28ZM59.1004 11.24L59.7964 10.568C59.7804 11.736 59.6124 12.888 59.2924 14.024C58.9884 15.144 58.5324 16.152 57.9244 17.048C57.3164 17.928 56.5564 18.64 55.6444 19.184C54.7484 19.728 53.7164 20 52.5484 20H52.4524C51.2684 20 50.2204 19.728 49.3084 19.184C48.4124 18.624 47.6604 17.912 47.0524 17.048C46.4444 16.168 45.9804 15.192 45.6604 14.12C45.3564 13.048 45.2044 11.984 45.2044 10.928C45.2044 9.872 45.3564 8.816 45.6604 7.76C45.9804 6.704 46.4444 5.744 47.0524 4.88C47.6604 4.016 48.4124 3.304 49.3084 2.744C50.2204 2.184 51.2684 1.88 52.4524 1.832C52.9964 1.816 53.5244 1.88 54.0364 2.024C54.5484 2.168 55.0364 2.376 55.5004 2.648C55.9804 2.92 56.4204 3.248 56.8204 3.632C57.2364 4 57.6044 4.4 57.9244 4.832C57.8284 5.2 57.6924 5.544 57.5164 5.864C57.3564 6.168 57.1244 6.536 56.8204 6.968C56.6124 6.392 56.3644 5.84 56.0764 5.312C55.8044 4.768 55.4924 4.288 55.1404 3.872C54.7884 3.456 54.3964 3.128 53.9644 2.888C53.5324 2.632 53.0604 2.504 52.5484 2.504C51.7804 2.504 51.1084 2.744 50.5324 3.224C49.9724 3.688 49.4924 4.248 49.0924 4.904C48.5804 5.768 48.2044 6.736 47.9644 7.808C47.7244 8.88 47.6044 9.92 47.6044 10.928C47.6044 11.936 47.7244 12.976 47.9644 14.048C48.2044 15.12 48.5804 16.088 49.0924 16.952C49.4764 17.592 49.9484 18.152 50.5084 18.632C51.0844 19.112 51.7484 19.352 52.5004 19.352C53.2524 19.352 53.9084 19.112 54.4684 18.632C55.0444 18.152 55.5244 17.592 55.9084 16.952C56.4044 16.136 56.7644 15.232 56.9884 14.24C57.2284 13.232 57.3644 12.24 57.3964 11.264H54.2524C53.8364 11.264 53.4924 11.4 53.2204 11.672C52.9644 11.944 52.8364 12.36 52.8364 12.92H52.1644C52.1644 12.2 52.3564 11.632 52.7404 11.216C53.1404 10.8 53.6444 10.592 54.2524 10.592H57.7324C58.1484 10.592 58.4844 10.456 58.7404 10.184C59.0124 9.912 59.1484 9.496 59.1484 8.936H59.7964V11.024V11.168C59.7964 11.2 59.8044 11.232 59.8204 11.264L59.1004 11.24ZM71.1324 20V19.352H72.6444L70.1004 13.016H63.8844L61.3404 19.352H62.8524V20H58.8684V19.352H60.6204L67.0764 3.248C67.1564 3.072 67.2284 2.896 67.2924 2.72C67.3564 2.528 67.4204 2.352 67.4844 2.192C67.5484 2.016 67.6204 1.84 67.7004 1.664H68.0364L75.1164 19.352H76.8684V20H71.1324ZM66.9804 5.24L64.1484 12.344H69.8364L66.9804 5.24ZM92.3621 20V19.328H95.7461C95.6661 18.8 95.4661 18.272 95.1461 17.744C94.8421 17.216 94.4981 16.768 94.1141 16.4L82.3781 4.688V19.328H84.0341V20H81.6101V19.976C81.3381 19.992 81.0101 20 80.6261 20C80.2581 20 79.8981 20 79.5461 20H78.2981V19.328H79.9541V1.304L82.3061 3.68L94.0181 15.344V2.456H92.3621V1.784H94.7861H96.2261H98.0981V2.456H96.4421V19.328H98.0981V20H92.3621ZM113.525 14.552C113.269 15.272 112.925 15.96 112.493 16.616C112.077 17.272 111.581 17.856 111.005 18.368C110.445 18.864 109.813 19.264 109.109 19.568C108.405 19.856 107.645 20 106.829 20C106.013 20 105.253 19.856 104.549 19.568C103.845 19.264 103.205 18.864 102.629 18.368C102.069 17.856 101.573 17.272 101.141 16.616C100.725 15.944 100.389 15.248 100.133 14.528C99.9245 13.952 99.7725 13.36 99.6765 12.752C99.5805 12.128 99.5325 11.512 99.5325 10.904C99.5325 9.624 99.7325 8.408 100.133 7.256C100.389 6.536 100.725 5.848 101.141 5.192C101.573 4.536 102.069 3.96 102.629 3.464C103.205 2.952 103.845 2.544 104.549 2.24C105.253 1.936 106.013 1.784 106.829 1.784C108.157 1.784 109.349 2.184 110.405 2.984C111.461 3.768 112.325 4.784 112.997 6.032C112.629 6.128 112.317 6.264 112.061 6.44C111.805 6.6 111.525 6.848 111.221 7.184C111.029 6.592 110.797 6.016 110.525 5.456C110.253 4.896 109.933 4.392 109.565 3.944C109.197 3.496 108.781 3.136 108.317 2.864C107.869 2.592 107.381 2.456 106.853 2.456C106.101 2.456 105.437 2.696 104.861 3.176C104.301 3.656 103.821 4.224 103.421 4.88C102.909 5.744 102.533 6.712 102.293 7.784C102.053 8.856 101.933 9.896 101.933 10.904C101.933 11.912 102.053 12.952 102.293 14.024C102.533 15.096 102.909 16.064 103.421 16.928C103.821 17.568 104.301 18.128 104.861 18.608C105.421 19.088 106.077 19.328 106.829 19.328H106.877C107.549 19.328 108.141 19.152 108.653 18.8C109.165 18.448 109.597 18.008 109.949 17.48C110.317 16.936 110.613 16.352 110.837 15.728C111.077 15.088 111.261 14.48 111.389 13.904C111.709 13.824 111.997 13.68 112.253 13.472C112.509 13.264 112.725 13.016 112.901 12.728C113.093 12.424 113.237 12.096 113.333 11.744C113.429 11.392 113.477 11.04 113.477 10.688H114.125V10.928C114.125 11.536 114.077 12.152 113.981 12.776C113.885 13.384 113.733 13.976 113.525 14.552ZM129.772 4.28C129.116 3.624 128.268 3.16 127.228 2.888C126.204 2.6 125.148 2.456 124.06 2.456H124.084H119.716V10.568H124.756L126.748 12.584L126.268 13.04C125.948 12.72 125.572 12.448 125.14 12.224C124.724 11.984 124.284 11.792 123.82 11.648C123.356 11.504 122.892 11.4 122.428 11.336C121.964 11.256 121.532 11.216 121.132 11.216H119.716V17.768C119.924 17.96 120.148 18.152 120.388 18.344C120.644 18.52 120.908 18.688 121.18 18.848C121.468 18.992 121.748 19.112 122.02 19.208C122.308 19.288 122.588 19.328 122.86 19.328C123.148 19.328 123.452 19.336 123.772 19.352C124.092 19.352 124.46 19.344 124.876 19.328C125.276 19.328 125.692 19.288 126.124 19.208C126.572 19.128 127.012 19.016 127.444 18.872C127.876 18.712 128.292 18.52 128.692 18.296C129.092 18.072 129.452 17.808 129.772 17.504L130.228 17.984L128.236 20H124.612H122.86C122.236 20 121.62 19.84 121.012 19.52C120.404 19.2 119.884 18.832 119.452 18.416C119.036 18.048 118.668 17.696 118.348 17.36C118.028 17.008 117.684 16.656 117.316 16.304V16.28C116.884 15.816 116.484 15.256 116.116 14.6C115.748 13.928 115.564 13.2 115.564 12.416H116.236C116.236 12.96 116.34 13.472 116.548 13.952C116.756 14.432 117.012 14.864 117.316 15.248V2.456H115.66V1.784H124.612H128.236L130.228 3.8L129.772 4.28Z" fill="black"/>
<path d="M45.372 32L48.78 23.672H49.596L52.992 32H51.768L48.972 24.956H49.392L46.572 32H45.372ZM46.992 30.116V29.132H51.372V30.116H46.992ZM55.7097 32V30.968H58.0257C58.6417 30.968 59.1817 30.836 59.6457 30.572C60.1097 30.3 60.4697 29.928 60.7257 29.456C60.9897 28.984 61.1217 28.44 61.1217 27.824C61.1217 27.216 60.9897 26.676 60.7257 26.204C60.4617 25.732 60.0977 25.364 59.6337 25.1C59.1697 24.836 58.6337 24.704 58.0257 24.704H55.7217V23.672H58.0497C58.6577 23.672 59.2177 23.776 59.7297 23.984C60.2497 24.192 60.6977 24.484 61.0737 24.86C61.4577 25.236 61.7537 25.676 61.9617 26.18C62.1777 26.684 62.2857 27.236 62.2857 27.836C62.2857 28.428 62.1777 28.98 61.9617 29.492C61.7537 29.996 61.4617 30.436 61.0857 30.812C60.7097 31.188 60.2617 31.48 59.7417 31.688C59.2297 31.896 58.6737 32 58.0737 32H55.7097ZM54.9657 32V23.672H56.0937V32H54.9657ZM64.5685 32V23.672H65.3605L68.8885 29.468H68.3485L71.8765 23.672H72.6685V32H71.5405V25.652L71.8045 25.724L69.0205 30.296H68.2285L65.4445 25.724L65.6965 25.652V32H64.5685ZM75.3549 32V23.672H76.4829V32H75.3549ZM79.1687 32V23.672H79.9607L80.2967 24.98V32H79.1687ZM84.9287 32L79.8167 25.172L79.9607 23.672L85.0847 30.488L84.9287 32ZM84.9287 32L84.5927 30.764V23.672H85.7207V32H84.9287ZM92.3803 28.76V27.776H94.6483C94.9603 27.776 95.2363 27.712 95.4763 27.584C95.7243 27.456 95.9163 27.276 96.0523 27.044C96.1963 26.812 96.2683 26.536 96.2683 26.216C96.2683 25.896 96.1963 25.62 96.0523 25.388C95.9163 25.156 95.7243 24.976 95.4763 24.848C95.2363 24.72 94.9603 24.656 94.6483 24.656H92.3803V23.672H94.7203C95.2323 23.672 95.6883 23.776 96.0883 23.984C96.4963 24.192 96.8163 24.488 97.0483 24.872C97.2883 25.248 97.4083 25.696 97.4083 26.216C97.4083 26.728 97.2883 27.176 97.0483 27.56C96.8163 27.936 96.4963 28.232 96.0883 28.448C95.6883 28.656 95.2323 28.76 94.7203 28.76H92.3803ZM91.6243 32V23.672H92.7523V32H91.6243ZM98.2128 32L101.621 23.672H102.437L105.833 32H104.609L101.813 24.956H102.233L99.4128 32H98.2128ZM99.8328 30.116V29.132H104.213V30.116H99.8328ZM107.807 32V23.672H108.599L108.935 24.98V32H107.807ZM113.567 32L108.455 25.172L108.599 23.672L113.723 30.488L113.567 32ZM113.567 32L113.231 30.764V23.672H114.359V32H113.567ZM117.046 32V23.672H118.174V32H117.046ZM117.814 32V30.968H122.59V32H117.814ZM117.814 28.232V27.248H122.194V28.232H117.814ZM117.814 24.704V23.672H122.53V24.704H117.814ZM124.844 32V23.672H125.972V32H124.844ZM125.612 32V30.968H130.076V32H125.612Z" fill="#FDAB70"/>
</svg>
